# xmcd
#
# Track frame offsets:
#	150
#	15460
#	32513
#	52234
#	67138
#	83423
#	102949
#	120931
#	141237
#	156055
#	171088
#
# Disc length: 2487 seconds
#
# Revision: 1
# Processed by: cddbd v1.5.1PL2 Copyright (c) Steve Scherf et al.
# Submitted via: audiograbber 1.81.03
#
DISCID=8609b50b
DTITLE=Ron`Hynes - Sandcastle
DYEAR=2001
DGENRE=Country
TTITLE0=1962
TTITLE1=My Old Man
TTITLE2=What If I Stayed
TTITLE3=A Good Dog Is Lost
TTITLE4=From Dublin With Love
TTITLE5=Cape Spear
TTITLE6=Be There Christmas Eve
TTITLE7=The`Ghost of Dana Bradley
TTITLE8=Dark River
TTITLE9=Babyface
TTITLE10=You and You Alone
EXTD=
EXTT0=
EXTT1=
EXTT2=
EXTT3=
EXTT4=
EXTT5=
EXTT6=
EXTT7=
EXTT8=
EXTT9=
EXTT10=
PLAYORDER=
